<svg width="642" height="556" viewBox="0 0 642 556" fill="none" xmlns="http://www.w3.org/2000/svg">
<path fill-rule="evenodd" clip-rule="evenodd" d="M385.733 0L386 4.15602V0H385.733ZM408 78C400.659 78 394.157 74.4042 390.161 68.8778L390.233 69.9999L359.733 33L339.233 9L331.333 2.58106C331.266 2.52724 331.194 2.48212 331.116 2.44681L325.733 0H24C10.7452 0 0 10.7452 0 24V478H233C240.264 478 246.706 481.52 250.712 486.948L250.442 485.955L256.055 492.624L285.34 527.601L314.664 556H617C630.255 556 641 545.255 641 532V56C641 68.1503 631.15 78 619 78H408Z" fill="#73BAAC"/>
<rect x="251.5" y="228.5" width="254" height="243" stroke="#7FBEB3" stroke-width="15"/>
<path d="M249.261 469.929L421.184 288.457L594.052 469.029L249.261 469.929Z" stroke="#7FBEB3" stroke-width="15"/>
<rect x="77.6066" y="300.988" width="254.697" height="235.974" transform="rotate(-44.9546 77.6066 300.988)" stroke="#7FBEB3" stroke-width="15"/>
</svg>
