<svg width="25" height="22" viewBox="0 0 25 22" fill="none" xmlns="http://www.w3.org/2000/svg">
<path d="M21.0938 4.4375H0.78125C0.487681 4.4375 0.25 4.19982 0.25 3.90625V0.78125C0.25 0.487681 0.487681 0.25 0.78125 0.25H21.0938C21.3873 0.25 21.625 0.487681 21.625 0.78125V3.90625C21.625 4.19982 21.3873 4.4375 21.0938 4.4375ZM3.90625 8.84375H24.2188C24.5123 8.84375 24.75 9.08143 24.75 9.375V12.5C24.75 12.7936 24.5123 13.0312 24.2188 13.0312H3.90625C3.61268 13.0312 3.375 12.7936 3.375 12.5V9.375C3.375 9.08143 3.61268 8.84375 3.90625 8.84375ZM0.78125 17.4375H21.0938C21.3873 17.4375 21.625 17.6752 21.625 17.9688V21.0938C21.625 21.3873 21.3873 21.625 21.0938 21.625H0.78125C0.487681 21.625 0.25 21.3873 0.25 21.0938V17.9688C0.25 17.6752 0.487681 17.4375 0.78125 17.4375Z" fill="black" stroke="black" stroke-width="0.5"/>
</svg>
