<svg width="20" height="20" viewBox="0 0 20 20" fill="none" xmlns="http://www.w3.org/2000/svg">
<path d="M13.2106 14.2853C13.1086 14.2853 13.0075 14.2498 12.9376 14.1812C12.8135 14.0594 12.8351 13.8793 12.9858 13.779L18.6618 9.99961L12.9857 6.22021C12.835 6.11988 12.8135 5.9398 12.9376 5.81797C13.0618 5.69608 13.2845 5.67878 13.4351 5.77904L19.4425 9.77898C19.524 9.83327 19.5712 9.91417 19.5712 9.99955C19.5712 10.0849 19.524 10.1658 19.4425 10.2201L13.4351 14.2201C13.3694 14.2639 13.2897 14.2853 13.2106 14.2853Z" fill="white"/>
<path d="M18.9801 10.3418H1.04639C0.852207 10.3418 0.694824 10.1844 0.694824 9.99023C0.694824 9.79605 0.852207 9.63867 1.04639 9.63867H18.9801C19.1742 9.63867 19.3316 9.79605 19.3316 9.99023C19.3316 10.1844 19.1742 10.3418 18.9801 10.3418Z" fill="white"/>
</svg>
