<svg width="25" height="26" viewBox="0 0 25 26" fill="none" xmlns="http://www.w3.org/2000/svg">
<path d="M17.9671 16.2523L17.6513 16.6562H18.1641H18.96C19.2071 16.6562 19.4411 16.7526 19.6133 16.9248L24.4805 21.792C24.4806 21.7922 24.4808 21.7924 24.481 21.7925C24.8381 22.154 24.8379 22.7382 24.4765 23.0996L23.0947 24.4814L23.0938 24.4824C22.738 24.8419 22.1549 24.8433 21.793 24.4814L16.9248 19.6133C16.7526 19.4411 16.6562 19.2071 16.6562 18.96V18.1641V17.6513L16.2523 17.9671C14.5711 19.2815 12.457 20.0625 10.1562 20.0625C4.68397 20.0625 0.25 15.6285 0.25 10.1562C0.25 4.68397 4.68397 0.25 10.1562 0.25C15.6285 0.25 20.0625 4.68397 20.0625 10.1562C20.0625 12.457 19.2815 14.5711 17.9671 16.2523ZM3.65625 10.1562C3.65625 13.7515 6.56616 16.6562 10.1562 16.6562C13.7515 16.6562 16.6562 13.7463 16.6562 10.1562C16.6562 6.56102 13.7463 3.65625 10.1562 3.65625C6.56102 3.65625 3.65625 6.56616 3.65625 10.1562Z" fill="#1D1D1D" stroke="black" stroke-width="0.5"/>
</svg>
