<svg width="25" height="25" viewBox="0 0 25 25" fill="none" xmlns="http://www.w3.org/2000/svg">
<g clip-path="url(#clip0_312_2)">
<path d="M18.75 7.8125V6.25C18.75 2.80371 15.9462 0 12.5 0C9.05371 0 6.25 2.80371 6.25 6.25V7.8125H1.5625V21.0938C1.5625 23.2511 3.31138 25 5.46875 25H19.5312C21.6886 25 23.4375 23.2511 23.4375 21.0938V7.8125H18.75ZM9.375 6.25C9.375 4.52686 10.7769 3.125 12.5 3.125C14.2231 3.125 15.625 4.52686 15.625 6.25V7.8125H9.375V6.25ZM17.1875 12.1094C16.5403 12.1094 16.0156 11.5847 16.0156 10.9375C16.0156 10.2903 16.5403 9.76562 17.1875 9.76562C17.8347 9.76562 18.3594 10.2903 18.3594 10.9375C18.3594 11.5847 17.8347 12.1094 17.1875 12.1094ZM7.8125 12.1094C7.16528 12.1094 6.64062 11.5847 6.64062 10.9375C6.64062 10.2903 7.16528 9.76562 7.8125 9.76562C8.45972 9.76562 8.98438 10.2903 8.98438 10.9375C8.98438 11.5847 8.45972 12.1094 7.8125 12.1094Z" fill="black"/>
</g>
<defs>
<clipPath id="clip0_312_2">
<rect width="25" height="25" fill="white"/>
</clipPath>
</defs>
</svg>
