<svg width="24" height="18" viewBox="0 0 24 18" fill="none" xmlns="http://www.w3.org/2000/svg">
<path d="M23.2417 3.37356C22.9691 2.34709 22.1659 1.53867 21.1461 1.26432C19.2976 0.765793 11.8852 0.765793 11.8852 0.765793C11.8852 0.765793 4.47286 0.765793 2.6243 1.26432C1.60446 1.53871 0.801251 2.34709 0.528638 3.37356C0.0333252 5.23411 0.0333252 9.11597 0.0333252 9.11597C0.0333252 9.11597 0.0333252 12.9978 0.528638 14.8584C0.801251 15.8848 1.60446 16.6596 2.6243 16.9339C4.47286 17.4325 11.8852 17.4325 11.8852 17.4325C11.8852 17.4325 19.2975 17.4325 21.1461 16.9339C22.1659 16.6596 22.9691 15.8848 23.2417 14.8584C23.7371 12.9978 23.7371 9.11597 23.7371 9.11597C23.7371 9.11597 23.7371 5.23411 23.2417 3.37356ZM9.46093 12.6404V5.59153L15.6562 9.11605L9.46093 12.6404Z" fill="black"/>
</svg>
